<?xml version="1.0" encoding="UTF-8"?>
<svg id="Layer_1" data-name="Layer 1" xmlns="http://www.w3.org/2000/svg" version="1.1" viewBox="0 0 432 288">
  <defs>
    <style>
      .cls-1 {
        fill: none;
        stroke: #000;
        stroke-miterlimit: 10;
        stroke-width: 26px;
      }

      .cls-2 {
        fill: #000;
      }

      .cls-2, .cls-3 {
        stroke-width: 0px;
      }

      .cls-3 {
        fill: #fff;
      }
    </style>
  </defs>
  <g>
    <rect class="cls-3" x="121" y="49" width="190" height="190" rx="40.7" ry="40.7"/>
    <path class="cls-2" d="M270.3,62c15.3,0,27.7,12.4,27.7,27.7v108.7c0,15.3-12.4,27.7-27.7,27.7h-108.7c-15.3,0-27.7-12.4-27.7-27.7v-108.7c0-15.3,12.4-27.7,27.7-27.7h108.7M270.3,36h-108.7c-29.6,0-53.7,24-53.7,53.7v108.7c0,29.6,24,53.7,53.7,53.7h108.7c29.6,0,53.7-24,53.7-53.7v-108.7c0-29.6-24-53.7-53.7-53.7h0Z"/>
  </g>
  <path class="cls-2" d="M162,62c15.4,0,28,12.6,28,28s-12.6,28-28,28-28-12.6-28-28,12.6-28,28-28M162,36c-29.8,0-54,24.2-54,54s24.2,54,54,54,54-24.2,54-54-24.2-54-54-54h0Z"/>
  <path class="cls-2" d="M270,62c15.4,0,28,12.6,28,28s-12.6,28-28,28-28-12.6-28-28,12.6-28,28-28M270,36c-29.8,0-54,24.2-54,54s24.2,54,54,54,54-24.2,54-54-24.2-54-54-54h0Z"/>
  <line class="cls-1" x1="194.7" y1="122.7" x2="300.5" y2="228.5"/>
</svg>